<?xml version="1.0" standalone="no"?>
<!DOCTYPE svg PUBLIC "-//W3C//DTD SVG 20010904//EN"
 "http://www.w3.org/TR/2001/REC-SVG-20010904/DTD/svg10.dtd">
<svg version="1.0" xmlns="http://www.w3.org/2000/svg"
 width="260.000000pt" height="260.000000pt" viewBox="0 0 260.000000 260.000000"
 preserveAspectRatio="xMidYMid meet">
<metadata>
Created by potrace 1.14, written by Peter Selinger 2001-2017
</metadata>
<g transform="translate(0.000000,260.000000) scale(0.100000,-0.100000)"
fill="#000000" stroke="none">
<path d="M0 1300 l0 -1300 1300 0 1300 0 0 1300 0 1300 -1300 0 -1300 0 0
-1300z m1426 725 c15 -23 14 -27 -8 -77 -24 -52 -146 -204 -156 -194 -7 8 24
53 85 123 39 44 54 69 51 85 -3 21 -7 23 -57 20 -57 -3 -175 -38 -363 -108
-124 -46 -278 -119 -278 -132 1 -4 75 -58 165 -120 l165 -113 75 18 c41 9 75
21 75 25 0 4 -10 43 -21 85 -23 82 -29 168 -15 192 7 10 15 2 33 -34 18 -35
22 -50 13 -55 -9 -6 -10 -20 -1 -59 15 -70 43 -122 85 -159 28 -25 36 -39 36
-66 l0 -35 -42 24 c-43 25 -140 35 -152 17 -3 -5 9 -20 27 -33 18 -13 79 -64
137 -114 58 -51 116 -97 129 -104 23 -13 24 -13 18 30 -37 269 -59 492 -50
510 8 19 13 13 40 -49 23 -51 27 -69 16 -65 -16 6 -18 29 21 -277 20 -154 22
-165 43 -168 12 -2 35 4 52 13 41 21 41 21 -14 431 -47 353 -51 394 -35 394 8
0 70 -110 70 -124 0 -3 -7 -3 -16 1 -21 8 -18 -24 31 -395 36 -275 35 -304
-12 -348 -14 -13 -39 -28 -56 -33 l-32 -11 3 -124 3 -123 82 28 c45 16 81 34
79 40 -1 6 -5 36 -8 67 -7 75 17 126 62 130 43 4 66 -25 72 -94 4 -48 1 -61
-27 -106 -22 -34 -29 -54 -22 -61 14 -14 91 -12 137 3 l36 12 -7 67 c-3 36
-29 246 -56 466 -27 220 -47 411 -43 425 6 22 9 18 36 -40 16 -35 25 -66 19
-68 -12 -4 -9 -32 40 -452 40 -335 41 -387 13 -441 -16 -33 -70 -59 -120 -59
-31 0 -44 7 -75 41 l-38 41 -53 -16 c-29 -9 -72 -27 -95 -41 -40 -24 -43 -29
-43 -68 0 -23 -3 -53 -7 -65 -9 -35 -23 -7 -23 48 l0 45 -114 -117 c-119 -124
-134 -132 -191 -106 -28 12 -59 57 -69 100 -6 26 -7 27 -89 26 -86 -1 -125 11
-160 50 -25 28 -46 88 -47 135 0 20 -3 37 -6 37 -3 0 -19 -9 -35 -21 -41 -29
-90 -19 -123 24 -41 55 -41 80 0 223 4 17 -1 26 -24 39 -66 40 -80 134 -33
221 12 22 20 30 17 19 -23 -101 -27 -135 -15 -157 38 -73 100 -47 291 119 54
47 98 86 98 88 0 2 -63 51 -140 110 -136 105 -140 109 -140 146 0 71 10 82
132 142 131 64 262 114 426 162 145 42 176 43 198 10z m293 -177 c1 -4 -5 -5
-12 -2 -11 4 -9 -31 10 -168 25 -189 31 -326 14 -355 -6 -10 -11 -13 -11 -7 0
26 -61 493 -71 548 -6 33 -7 76 -3 95 l7 36 33 -70 c18 -38 33 -73 33 -77z
m-97 -137 c12 -4 15 -10 9 -20 -18 -28 -41 -4 -40 41 1 37 2 39 8 14 3 -16 14
-32 23 -35z m-584 -13 c14 2 16 -24 3 -33 -13 -7 -31 28 -30 57 1 23 1 23 8
-2 4 -14 13 -24 19 -22z m942 -48 c34 -68 36 -74 15 -66 -19 7 -19 2 5 -169
34 -232 38 -405 11 -405 -4 0 -11 46 -14 103 -4 56 -21 206 -39 333 -28 205
-31 264 -13 264 2 0 18 -27 35 -60z m-1339 -46 c-22 -41 -28 -89 -12 -99 5 -3
12 -1 16 5 8 13 25 13 25 1 0 -13 -50 -71 -61 -71 -16 0 -31 53 -24 86 5 31
64 129 72 121 2 -3 -5 -22 -16 -43z m145 -121 c-1 -35 3 -47 12 -45 8 1 12 -3
10 -10 -8 -23 -43 -15 -46 10 -3 19 15 92 22 92 1 0 2 -21 2 -47z m1274 -133
c7 -4 9 -13 5 -19 -14 -23 -35 10 -34 53 l1 41 8 -34 c4 -18 14 -37 20 -41z
m-700 50 c0 -5 -7 -10 -15 -10 -29 0 -14 -19 18 -22 l32 -3 -35 -23 c-37 -23
-62 -30 -42 -10 8 8 8 17 1 30 -7 14 -7 23 2 34 13 16 39 19 39 4z m340 -115
c7 -8 19 -15 27 -15 7 0 16 7 19 15 9 22 27 18 53 -9 20 -21 21 -27 9 -45 -16
-26 -30 -27 -53 0 l-19 20 -18 -23 -17 -23 -27 26 c-22 23 -24 30 -15 48 14
25 24 26 41 6z m-32 -527 c18 -18 14 -30 -7 -23 -16 5 -20 -1 -26 -45 -4 -27
-10 -50 -13 -50 -4 0 -15 14 -24 30 -9 17 -24 30 -31 30 -20 0 -31 30 -17 44
9 8 19 2 40 -23 l29 -34 11 42 c11 43 18 49 38 29z m-639 -150 c7 1 11 -3 9
-10 -3 -7 -12 -14 -20 -16 -20 -4 -32 30 -22 61 7 21 8 20 14 -8 3 -17 12 -29
19 -27z"/>
<path d="M958 1383 c-20 -16 -76 -65 -126 -110 -50 -45 -113 -93 -140 -107
-43 -22 -52 -32 -66 -72 -20 -60 -21 -133 0 -162 27 -39 59 -28 137 46 40 37
88 77 107 88 41 25 150 66 231 88 77 21 87 35 64 87 -17 36 -146 169 -164 169
-4 0 -23 -12 -43 -27z m15 -131 c16 -14 19 -14 33 7 l16 23 29 -28 c22 -21 26
-31 18 -45 -12 -23 -27 -24 -51 -2 -17 15 -19 15 -38 -2 -18 -17 -21 -17 -45
-1 -28 18 -30 28 -14 57 10 20 20 18 52 -9z"/>
<path d="M1142 1350 c41 -57 58 -101 58 -146 0 -61 -34 -93 -137 -129 -114
-40 -194 -78 -232 -110 -31 -27 -33 -31 -29 -82 7 -83 67 -133 160 -133 83 0
111 15 141 72 15 29 25 44 22 33 -4 -11 -9 -32 -12 -47 l-5 -27 62 24 c77 30
138 66 168 98 l23 25 -46 102 c-41 89 -46 105 -36 127 l11 25 39 -43 c27 -30
35 -45 25 -47 -19 -5 -18 -16 8 -65 27 -54 28 -119 1 -155 -32 -43 -128 -116
-198 -151 -69 -33 -75 -43 -50 -91 31 -61 113 -30 190 70 24 31 67 78 95 103
l50 45 0 136 0 136 -38 19 c-21 11 -81 58 -133 106 -52 48 -107 96 -124 108
l-30 22 17 -25z m-7 -370 c15 -17 16 -24 7 -45 -10 -22 -15 -24 -32 -15 -28
15 -40 41 -29 62 13 24 32 23 54 -2z"/>
<path d="M1673 1055 c-7 -21 3 -85 17 -99 12 -12 63 22 68 46 4 21 -36 68 -59
68 -11 0 -22 -7 -26 -15z"/>
</g>
</svg>
