<?xml version="1.0" standalone="no"?>
<!DOCTYPE svg PUBLIC "-//W3C//DTD SVG 20010904//EN"
 "http://www.w3.org/TR/2001/REC-SVG-20010904/DTD/svg10.dtd">
<svg version="1.0" xmlns="http://www.w3.org/2000/svg"
 width="1064.000000pt" height="1280.000000pt" viewBox="0 0 1064.000000 1280.000000"
 preserveAspectRatio="xMidYMid meet">
<metadata>
Created by potrace 1.15, written by Peter Selinger 2001-2017
</metadata>
<g transform="translate(0.000000,1280.000000) scale(0.100000,-0.100000)"
fill="#000000" stroke="none">
<path d="M1818 11178 c-15 -40 -163 -437 -331 -883 -168 -445 -492 -1307 -720
-1915 -229 -608 -492 -1309 -586 -1559 -94 -249 -171 -455 -171 -457 0 -2 347
-3 772 -2 l771 3 17 60 c23 78 164 556 196 663 l25 82 858 0 857 0 109 -357
c59 -197 115 -379 122 -405 l15 -48 790 0 c748 0 790 1 786 18 -3 9 -146 391
-318 847 -171 457 -437 1163 -590 1570 -153 407 -419 1114 -590 1570 -172 457
-317 842 -322 858 l-10 27 -827 0 -827 0 -26 -72z m1107 -2077 c146 -475 265
-865 265 -867 0 -2 -241 -4 -536 -4 -425 0 -535 3 -531 13 3 9 391 1283 515
1692 8 28 16 46 18 40 2 -5 123 -399 269 -874z"/>
<path d="M7285 5540 c-437 -27 -779 -107 -990 -232 -280 -165 -433 -361 -528
-678 -55 -181 -54 -178 -15 -184 18 -3 292 -33 608 -66 316 -33 594 -62 616
-65 l41 -6 51 105 c81 165 167 237 336 281 146 37 373 46 504 19 186 -38 267
-138 279 -344 l6 -86 -159 -56 c-268 -94 -436 -136 -1101 -273 -378 -78 -432
-92 -589 -145 -366 -127 -565 -297 -666 -572 -139 -381 -58 -784 213 -1057
238 -240 546 -342 1029 -342 558 1 927 128 1277 438 39 35 74 60 76 56 2 -5 8
-30 11 -56 13 -89 36 -162 83 -259 l46 -98 639 -2 c352 -2 641 -1 643 1 2 2
-8 29 -22 60 -53 117 -103 261 -119 342 -15 74 -18 209 -24 1094 -7 1133 -2
1055 -85 1303 -104 309 -262 498 -530 634 -195 99 -423 149 -810 177 -204 15
-658 21 -820 11z m902 -2157 c-5 -232 -13 -278 -74 -403 -69 -143 -238 -276
-433 -341 -76 -25 -116 -32 -211 -36 -185 -9 -287 18 -374 98 -148 136 -151
347 -8 492 82 84 229 144 600 246 120 33 277 80 348 104 72 24 136 45 144 45
11 2 12 -35 8 -205z"/>
</g>
</svg>
